HIERARCHY
ROOT Hips
{
	OFFSET 0.000000 89.005402 0.000000
	CHANNELS 6 Xposition Yposition Zposition Xrotation Yrotation Zrotation
	JOINT Spine
	{
		OFFSET 0.116900 10.681000 0.373400
		CHANNELS 3 Xrotation Yrotation Zrotation
		JOINT Spine1
		{
			OFFSET 0.000000 13.840401 0.053500
			CHANNELS 3 Xrotation Yrotation Zrotation
			JOINT Spine2
			{
				OFFSET 0.000000 14.712700 -0.366200
				CHANNELS 3 Xrotation Yrotation Zrotation
				JOINT Neck
				{
					OFFSET 0.000000 35.415497 -3.314200
					CHANNELS 3 Xrotation Yrotation Zrotation
					JOINT Head
					{
						OFFSET 0.000000 16.899200 1.218300
						CHANNELS 3 Xrotation Yrotation Zrotation
						JOINT HeadTop_End
						{
							OFFSET 0.000000 22.206207 2.192500
							CHANNELS 3 Xrotation Yrotation Zrotation
							End Site
							{
								OFFSET 0.000000 22.314178 0.000000
							}
						}
					}
				}
				JOINT LeftShoulder
				{
					OFFSET 12.896400 26.716293 -4.548400
					CHANNELS 3 Xrotation Yrotation Zrotation
					JOINT LeftArm
					{
						OFFSET 19.027000 -4.857010 -1.718400
						CHANNELS 3 Xrotation Yrotation Zrotation
						JOINT LeftForeArm
						{
							OFFSET 24.179897 0.000000 0.000000
							CHANNELS 3 Xrotation Yrotation Zrotation
							JOINT LeftHand
							{
								OFFSET 27.156403 0.000000 0.000000
								CHANNELS 3 Xrotation Yrotation Zrotation
								JOINT LeftHandIndex1
								{
									OFFSET 16.441200 0.000000 0.000000
									CHANNELS 3 Xrotation Yrotation Zrotation
									JOINT LeftHandIndex2
									{
										OFFSET 4.821899 0.000000 0.000000
										CHANNELS 3 Xrotation Yrotation Zrotation
										JOINT LeftHandIndex3
										{
											OFFSET 6.386497 0.000000 0.000000
											CHANNELS 3 Xrotation Yrotation Zrotation
											JOINT LeftHandIndex4
											{
												OFFSET 5.188988 0.000000 0.000000
												CHANNELS 3 Xrotation Yrotation Zrotation
												End Site
												{
													OFFSET -0.178703 5.185913 0.000177
												}
											}
										}
									}
								}
								JOINT LeftHandThumb1
								{
									OFFSET 6.534897 -5.032593 5.900300
									CHANNELS 3 Xrotation Yrotation Zrotation
									JOINT LeftHandThumb2
									{
										OFFSET 3.818176 -2.204422 2.204423
										CHANNELS 3 Xrotation Yrotation Zrotation
										JOINT LeftHandThumb3
										{
											OFFSET 3.252098 -1.877594 1.877601
											CHANNELS 3 Xrotation Yrotation Zrotation
											JOINT LeftHandThumb4
											{
												OFFSET 5.251778 -3.032120 3.032117
												CHANNELS 3 Xrotation Yrotation Zrotation
												End Site
												{
													OFFSET 0.000023 6.780014 0.000000
												}
											}
										}
									}
								}
							}
						}
					}
				}
				JOINT RightShoulder
				{
					OFFSET -12.896300 26.716293 -4.548400
					CHANNELS 3 Xrotation Yrotation Zrotation
					JOINT RightArm
					{
						OFFSET -19.027000 -4.857010 -1.718400
						CHANNELS 3 Xrotation Yrotation Zrotation
						JOINT RightForeArm
						{
							OFFSET -24.179897 0.000000 0.000000
							CHANNELS 3 Xrotation Yrotation Zrotation
							JOINT RightHand
							{
								OFFSET -27.156403 0.000000 0.000000
								CHANNELS 3 Xrotation Yrotation Zrotation
								JOINT RightHandThumb1
								{
									OFFSET -6.591202 -4.852203 5.988100
									CHANNELS 3 Xrotation Yrotation Zrotation
									JOINT RightHandThumb2
									{
										OFFSET -3.818176 -2.204422 2.204423
										CHANNELS 3 Xrotation Yrotation Zrotation
										JOINT RightHandThumb3
										{
											OFFSET -3.252098 -1.877594 1.877601
											CHANNELS 3 Xrotation Yrotation Zrotation
											JOINT RightHandThumb4
											{
												OFFSET -5.251778 -3.032120 3.032117
												CHANNELS 3 Xrotation Yrotation Zrotation
												End Site
												{
													OFFSET -0.000023 6.780014 0.000000
												}
											}
										}
									}
								}
								JOINT RightHandIndex1
								{
									OFFSET -16.029404 0.000000 0.000000
									CHANNELS 3 Xrotation Yrotation Zrotation
									JOINT RightHandIndex2
									{
										OFFSET -5.213303 0.000000 0.000000
										CHANNELS 3 Xrotation Yrotation Zrotation
										JOINT RightHandIndex3
										{
											OFFSET -6.386528 0.000000 0.000000
											CHANNELS 3 Xrotation Yrotation Zrotation
											JOINT RightHandIndex4
											{
												OFFSET -5.189026 0.000000 0.000000
												CHANNELS 3 Xrotation Yrotation Zrotation
												End Site
												{
													OFFSET 0.236702 5.183624 0.001972
												}
											}
										}
									}
								}
							}
						}
					}
				}
			}
		}
	}
	JOINT LeftUpLeg
	{
		OFFSET 14.073000 -7.904099 -1.463000
		CHANNELS 3 Xrotation Yrotation Zrotation
		JOINT LeftLeg
		{
			OFFSET -0.109806 -34.073280 4.093200
			CHANNELS 3 Xrotation Yrotation Zrotation
			JOINT LeftFoot
			{
				OFFSET 0.109806 -29.899420 -6.319000
				CHANNELS 3 Xrotation Yrotation Zrotation
				JOINT LeftToeBase
				{
					OFFSET 1.551100 -14.988700 20.535801
					CHANNELS 3 Xrotation Yrotation Zrotation
					JOINT LeftToe_End
					{
						OFFSET 0.221200 0.570800 13.248301
						CHANNELS 3 Xrotation Yrotation Zrotation
						End Site
						{
							OFFSET 0.000000 13.262435 0.000000
						}
					}
				}
			}
		}
	}
	JOINT RightUpLeg
	{
		OFFSET -13.839300 -7.904099 -1.463000
		CHANNELS 3 Xrotation Yrotation Zrotation
		JOINT RightLeg
		{
			OFFSET 0.109694 -34.073219 4.093300
			CHANNELS 3 Xrotation Yrotation Zrotation
			JOINT RightFoot
			{
				OFFSET -0.109694 -29.899384 -6.319200
				CHANNELS 3 Xrotation Yrotation Zrotation
				JOINT RightToeBase
				{
					OFFSET -1.551100 -14.988700 20.535801
					CHANNELS 3 Xrotation Yrotation Zrotation
					JOINT RightToe_End
					{
						OFFSET -0.221200 0.570900 13.248299
						CHANNELS 3 Xrotation Yrotation Zrotation
						End Site
						{
							OFFSET 0.000000 13.262440 0.000000
						}
					}
				}
			}
		}
	}
}
MOTION
Frames: 7
Frame Time: 0.033333
-149.961151 76.349350 -14.025205 -13.511658 -51.491184 -13.695451 26.850508 6.874194 0.260217 2.585725 0.397759 -4.211002 7.729092 -2.040324 -1.229819 0.926383 4.865693 1.433806 -12.631845 23.534457 6.336991 0.000001 0.000001 -0.000001 -20.313727 -7.865705 0.071646 -45.532152 -14.247849 -44.309452 0.000099 -66.377295 0.000093 -141.027506 -9.814634 17.944442 -1.425139 -0.991002 -19.237060 2.037975 4.441223 -49.281557 0.754044 2.877035 -29.367583 0.000000 -0.000001 -0.000000 1.333025 0.714002 1.780138 44.775643 -13.645444 34.870875 -0.053146 -26.705507 21.106688 0.000001 0.000000 0.000000 -22.994549 -2.641729 -4.979445 -54.741285 47.432170 98.044927 -0.001523 95.821537 0.001523 -31.779132 -28.456197 -12.732734 -35.663396 -27.103565 11.711769 -14.003998 -26.773821 -22.797462 -12.474708 -25.704242 -48.483148 0.000004 0.000001 -0.000000 0.023972 -2.200271 4.908357 1.168371 -3.086968 41.454221 0.730286 -2.505729 32.492719 0.000000 -0.000001 0.000001 -14.483184 -0.066168 17.377282 58.012089 -4.162766 10.135334 -34.568984 2.841682 -3.586389 -2.852614 -0.000010 -0.000007 -0.000000 0.000004 -0.000000 -36.059424 -15.996421 -17.993771 42.872138 -3.017260 -3.818858 0.510208 -16.103414 8.203697 -1.125382 -0.000019 0.000002 0.000000 0.000000 0.000000 
-153.552628 77.205650 -14.425322 -12.761744 -50.528148 -11.808828 25.626216 6.194910 0.015127 2.424313 0.097075 -4.771959 8.090539 -2.605637 -1.438367 0.856522 5.223120 1.507532 -12.085888 23.222539 7.434966 0.000000 -0.000000 -0.000001 -22.449773 -8.282345 -0.456401 -45.189300 -12.330931 -45.569864 0.000085 -67.546220 0.000085 -138.314063 -9.256254 19.821209 -1.586704 -0.632554 -22.072931 2.151394 4.536102 -50.730772 0.723204 2.821576 -28.746948 0.000005 0.000001 0.000002 1.370565 0.672434 1.929300 41.299381 -12.535754 30.592964 -0.834891 -24.753760 18.607792 0.000003 0.000000 0.000000 -25.370002 -3.929885 -5.488752 -54.112932 48.675596 98.812593 -0.000591 96.028259 0.000593 -33.266542 -27.725377 -13.648510 -29.764376 -24.505491 12.293396 -8.795265 -25.701259 -21.761256 -11.665824 -29.085783 -47.470768 -0.000001 -0.000000 0.000001 -0.039080 -1.763359 6.419156 1.202436 -3.125045 42.082920 0.717138 -2.484993 32.190832 0.000000 -0.000000 0.000000 -14.441883 -1.211509 17.685161 58.659003 -3.870026 10.419185 -29.462041 3.073030 -4.453923 -4.912350 0.086383 -2.636843 -0.000001 0.000001 -0.000001 -34.518273 -17.514905 -18.370262 45.121705 -1.809389 -3.397123 -4.072405 -17.554846 7.034239 -0.925882 0.000012 0.000002 -0.000000 0.000000 0.000000 
-156.920319 78.149841 -14.724943 -12.720627 -50.152430 -10.907280 24.870667 6.199218 0.017422 2.283361 -0.031863 -5.261946 8.462440 -2.988394 -1.608484 0.714847 5.551760 1.451090 -11.789269 22.951710 7.975447 0.000000 0.000000 -0.000000 -24.598117 -8.230140 -0.622755 -44.650818 -10.620199 -47.376408 0.000075 -68.402186 0.000080 -135.843570 -8.474309 21.274931 -1.730398 -0.365250 -24.489462 2.252841 4.616911 -52.002041 0.686079 2.752914 -27.983724 0.000000 0.000001 0.000001 1.406682 0.632976 2.072030 37.938132 -11.372615 26.580909 -1.455488 -22.689299 16.076966 -0.000002 0.000001 -0.000001 -27.699591 -5.091633 -6.079450 -53.451011 50.283392 99.290870 -0.000281 96.305626 0.000265 -35.056595 -26.731018 -15.007707 -24.092550 -21.828670 12.672063 -3.990568 -24.742377 -20.948163 -10.611215 -32.348442 -46.063267 -0.000000 0.000000 0.000001 -0.111188 -1.371500 7.521388 1.227721 -3.152753 42.544381 0.697719 -2.453886 31.740067 -0.000000 -0.000002 0.000001 -16.069045 -2.555390 17.128137 62.364593 0.323885 11.011354 -21.358647 2.518835 -3.141678 -7.965390 1.339650 -10.089055 -0.000001 -0.000001 -0.000002 -31.722076 -18.394480 -17.068617 45.823350 -1.629035 -3.799960 -7.637564 -18.811111 6.371791 -0.957153 0.000012 -0.000001 -0.000000 -0.000001 -0.000000 
-159.977402 79.000824 -14.926519 -13.463182 -50.340154 -10.981265 24.301022 6.718474 0.247371 2.199198 -0.043027 -5.588162 8.880883 -3.230377 -1.642847 0.663158 5.864901 1.322759 -11.174057 22.825411 8.029128 -0.000000 0.000000 0.000000 -26.704001 -7.902619 -0.560901 -44.073889 -8.974929 -49.540424 0.000050 -68.436201 0.000054 -133.274367 -7.378532 22.596141 -1.838044 -0.026197 -26.952738 2.353992 4.693910 -53.248285 0.651763 2.687395 -27.260593 0.000000 0.000001 0.000000 1.440795 0.596143 2.206147 34.734305 -10.122322 22.944224 -2.029080 -20.634179 13.640159 0.000001 0.000000 -0.000002 -29.943713 -5.852362 -6.675662 -52.901629 51.813501 99.652815 -0.000120 96.012003 0.000160 -37.297228 -25.523088 -16.250968 -18.664371 -19.180302 12.833006 0.487034 -23.801497 -20.258186 -9.455702 -35.442012 -44.492043 -0.000001 0.000000 0.000003 -0.208281 -0.948845 8.720581 1.253326 -3.180405 43.007915 0.679823 -2.424753 31.319730 -0.000000 -0.000001 0.000000 -17.393939 -3.081734 16.073575 65.578914 2.474892 10.958161 -13.120940 1.558930 -0.819125 -12.632774 3.545217 -16.006461 -0.000001 -0.000003 0.000002 -28.642301 -19.907582 -15.808995 45.738304 -0.190456 -3.808021 -10.656462 -19.943155 4.832378 -0.925467 -0.000004 -0.000003 0.000000 -0.000001 -0.000000 
-162.733017 79.745598 -15.061689 -14.651780 -51.155272 -11.598726 23.836730 7.462858 0.405478 2.111343 0.010361 -5.843238 9.275979 -3.394478 -1.630419 0.593417 6.204527 1.103351 -10.178035 22.792411 8.369535 0.000001 0.000001 0.000002 -28.677915 -7.185880 -0.511543 -43.554737 -7.508289 -51.403649 -0.000064 -68.332040 -0.000061 -130.306212 -6.093523 24.622067 -1.896192 0.380105 -29.416945 2.450618 4.764286 -54.420212 0.619010 2.622928 -26.553656 -0.000000 0.000001 0.000001 1.472312 0.562482 2.329469 31.713880 -8.754261 19.727374 -2.601559 -18.669602 11.363329 -0.000002 -0.000001 -0.000000 -32.111079 -6.405185 -7.343454 -53.009351 53.247581 100.741984 0.001139 95.284117 -0.001174 -40.273408 -23.895068 -17.547642 -13.502740 -16.641257 12.803809 4.699674 -22.783030 -19.676964 -8.291471 -38.331213 -42.882865 -0.000000 -0.000001 0.000004 -0.335189 -0.487557 9.987427 1.277164 -3.205729 43.436007 0.662280 -2.395688 30.902224 0.000000 -0.000002 -0.000000 -17.452837 -2.249322 15.385339 67.162104 1.477444 10.377478 -6.604746 1.182225 -1.713382 -16.490828 5.738253 -20.462108 0.000000 0.000000 -0.000000 -25.812253 -21.623658 -15.021545 45.379220 1.901458 -3.443974 -12.920004 -20.394573 3.344213 -0.881220 0.000003 -0.000002 0.000000 0.000000 0.000000 
-165.505127 80.384911 -15.161790 -15.865413 -52.123028 -12.470347 23.319927 8.153961 0.548817 1.981767 0.059067 -6.111386 9.599849 -3.555106 -1.646792 0.589093 6.523403 0.990312 -9.577421 22.818550 9.146522 -0.000000 -0.000000 -0.000000 -30.554247 -6.593674 -0.425346 -42.891262 -6.188417 -52.470084 0.000063 -68.621804 0.000055 -127.090054 -4.858778 27.583663 -1.914187 0.795196 -31.749861 2.556317 4.837922 -55.683045 0.596097 2.576620 -26.048509 0.000004 -0.000001 0.000000 1.500649 0.532554 2.439820 28.932514 -7.269102 16.880519 -3.136867 -16.825922 9.254096 0.000002 -0.000002 -0.000003 -34.075926 -6.751663 -7.802283 -53.289880 54.401968 102.140930 0.000559 94.583845 -0.000558 -43.818529 -22.058320 -18.922081 -8.689063 -14.192751 12.646241 8.614229 -21.720416 -19.237375 -7.092887 -40.985281 -41.208297 0.000000 -0.000001 0.000003 -0.482196 -0.025712 11.196847 1.308915 -3.238867 44.000799 0.652586 -2.379460 30.669896 0.000000 -0.000001 0.000000 -17.858242 -0.700424 14.552184 68.203243 0.906809 9.994629 -0.316183 0.762020 -2.388186 -20.681859 8.424621 -23.454629 -0.000000 -0.000002 0.000000 -22.717103 -23.110664 -13.708430 44.882829 3.968972 -3.222255 -15.249490 -20.957332 1.684127 -0.952228 -0.000002 -0.000001 0.000000 0.000000 0.000000 
-168.240768 80.901039 -15.206070 -16.805371 -53.137926 -13.197554 22.787439 8.702780 0.522972 1.852211 0.092144 -6.408641 9.885874 -3.721494 -1.711251 0.528598 6.829888 0.938200 -9.438437 22.983682 10.125990 0.000001 0.000001 0.000001 -32.297601 -5.879969 -0.171085 -42.285349 -5.396747 -53.099233 0.000210 -69.230791 0.000219 -124.012671 -3.711057 31.038825 -1.914232 1.153989 -33.786647 2.658826 4.906072 -56.890008 0.576922 2.537063 -25.618832 0.000000 -0.000001 0.000000 1.525193 0.506866 2.535007 26.425116 -5.736722 14.374972 -3.595652 -15.096554 7.307176 0.000000 0.000002 0.000000 -35.931675 -7.012253 -8.349496 -53.752165 55.181180 103.871516 0.000240 94.191867 -0.000217 -47.556077 -20.051682 -20.377451 -4.286963 -11.857444 12.392287 12.176421 -20.683712 -18.944752 -5.826503 -43.374105 -39.442594 -0.000000 0.000001 0.000002 -0.627752 0.392131 12.189847 1.340698 -3.271420 44.560748 0.645249 -2.367053 30.492608 -0.000000 -0.000001 -0.000000 -18.870073 0.479698 14.487439 69.401989 -0.031379 8.233440 3.940719 0.475505 -2.373920 -25.900243 9.569694 -21.121139 0.000000 -0.000002 -0.000000 -19.612029 -24.195277 -12.039001 44.316583 5.389508 -3.308471 -17.575456 -21.401337 0.232316 -0.987503 0.000017 0.000003 0.000000 0.000001 -0.000000 
